<mxfile host="app.diagrams.net" modified="2021-09-17T05:41:50.594Z" agent="5.0 (X11)" etag="RFQhFe1cu1Uvo7RXaw2V" version="14.9.6" type="github" pages="2">
  <diagram id="a45cf8ec-cd66-6f27-3ac3-be6e809c9e4a" name="Page-1">
    <mxGraphModel dx="3487" dy="938" grid="1" gridSize="10" guides="1" tooltips="1" connect="1" arrows="1" fold="1" page="1" pageScale="1" pageWidth="827" pageHeight="1169" background="none" math="0" shadow="0">
      <root>
        <mxCell id="0" />
        <mxCell id="1" parent="0" />
        <mxCell id="3" value="" style="rounded=1;whiteSpace=wrap;html=1;shadow=0;strokeColor=none;fillColor=#BAC8D3;gradientColor=none;fontSize=18;fontColor=#F08705;opacity=40;fontStyle=0;strokeWidth=3;arcSize=20;" parent="1" vertex="1">
          <mxGeometry x="1535" y="1740" width="320" height="340" as="geometry" />
        </mxCell>
        <mxCell id="EeYLYLYff2lI2JlJs47j-173" value="Kubernetes" style="text;html=1;strokeColor=none;fillColor=none;align=center;verticalAlign=middle;whiteSpace=wrap;rounded=0;fontSize=35;fontStyle=1" vertex="1" parent="1">
          <mxGeometry x="1685" y="1800" width="40" height="20" as="geometry" />
        </mxCell>
        <mxCell id="EeYLYLYff2lI2JlJs47j-175" value="" style="html=1;dashed=0;whitespace=wrap;fillColor=#2875E2;strokeColor=#ffffff;points=[[0.005,0.63,0],[0.1,0.2,0],[0.9,0.2,0],[0.5,0,0],[0.995,0.63,0],[0.72,0.99,0],[0.5,1,0],[0.28,0.99,0]];shape=mxgraph.kubernetes.icon;prIcon=master;fontSize=35;" vertex="1" parent="1">
          <mxGeometry x="1608.75" y="1854" width="183.25" height="186" as="geometry" />
        </mxCell>
        <mxCell id="EeYLYLYff2lI2JlJs47j-200" value="" style="rounded=1;whiteSpace=wrap;html=1;shadow=0;strokeColor=none;fillColor=#BAC8D3;gradientColor=none;fontSize=18;fontColor=#F08705;opacity=40;fontStyle=0;strokeWidth=3;arcSize=20;" vertex="1" parent="1">
          <mxGeometry x="992" y="1750" width="320" height="340" as="geometry" />
        </mxCell>
        <mxCell id="EeYLYLYff2lI2JlJs47j-201" value="分布式数据库" style="text;html=1;strokeColor=none;fillColor=none;align=center;verticalAlign=middle;whiteSpace=wrap;rounded=0;fontSize=35;fontStyle=1" vertex="1" parent="1">
          <mxGeometry x="990" y="1800" width="320" height="20" as="geometry" />
        </mxCell>
        <mxCell id="EeYLYLYff2lI2JlJs47j-202" value="" style="verticalLabelPosition=bottom;aspect=fixed;html=1;verticalAlign=top;strokeColor=none;align=center;outlineConnect=0;shape=mxgraph.citrix.role_xenmobile_device_manager;fillColor=#CCCCCC;gradientColor=#000000;gradientDirection=south;fontSize=35;" vertex="1" parent="1">
          <mxGeometry x="1060" y="1870" width="175" height="190" as="geometry" />
        </mxCell>
        <mxCell id="EeYLYLYff2lI2JlJs47j-203" value="" style="rounded=1;whiteSpace=wrap;html=1;shadow=0;strokeColor=none;fillColor=#BAC8D3;gradientColor=none;fontSize=18;fontColor=#F08705;opacity=40;fontStyle=0;strokeWidth=3;arcSize=20;" vertex="1" parent="1">
          <mxGeometry x="1023" y="2268" width="832" height="340" as="geometry" />
        </mxCell>
        <mxCell id="EeYLYLYff2lI2JlJs47j-204" value="" style="shadow=0;dashed=0;html=1;labelPosition=center;verticalLabelPosition=bottom;verticalAlign=top;align=center;outlineConnect=0;shape=mxgraph.veeam.3d.esx_esxi;fontSize=35;" vertex="1" parent="1">
          <mxGeometry x="1142" y="2413" width="140" height="150" as="geometry" />
        </mxCell>
        <mxCell id="EeYLYLYff2lI2JlJs47j-207" value="容器" style="text;html=1;strokeColor=none;fillColor=none;align=center;verticalAlign=middle;whiteSpace=wrap;rounded=0;fontSize=35;fontStyle=1" vertex="1" parent="1">
          <mxGeometry x="1060" y="2313" width="320" height="20" as="geometry" />
        </mxCell>
        <mxCell id="EeYLYLYff2lI2JlJs47j-212" value="" style="shape=flexArrow;endArrow=classic;html=1;fontSize=35;endWidth=100;endSize=10.871428571428572;width=55.714285714285715;fillColor=#FFFF33;strokeColor=none;" edge="1" parent="1">
          <mxGeometry width="50" height="50" relative="1" as="geometry">
            <mxPoint x="1375" y="1960" as="sourcePoint" />
            <mxPoint x="1485" y="1960" as="targetPoint" />
          </mxGeometry>
        </mxCell>
        <mxCell id="EeYLYLYff2lI2JlJs47j-214" value="" style="shape=flexArrow;endArrow=classic;startArrow=classic;html=1;fontSize=35;fillColor=#FFFF33;startWidth=80;startSize=14.442857142857143;width=45.714285714285715;endWidth=80;endSize=14.442857142857143;strokeColor=none;" edge="1" parent="1">
          <mxGeometry width="100" height="100" relative="1" as="geometry">
            <mxPoint x="1675" y="2250" as="sourcePoint" />
            <mxPoint x="1675" y="2130" as="targetPoint" />
          </mxGeometry>
        </mxCell>
        <mxCell id="EeYLYLYff2lI2JlJs47j-209" value="镜像" style="text;html=1;strokeColor=none;fillColor=none;align=center;verticalAlign=middle;whiteSpace=wrap;rounded=0;fontSize=35;fontStyle=1" vertex="1" parent="1">
          <mxGeometry x="1507" y="2290" width="320" height="20" as="geometry" />
        </mxCell>
        <mxCell id="EeYLYLYff2lI2JlJs47j-210" value="" style="shape=image;html=1;verticalAlign=top;verticalLabelPosition=bottom;labelBackgroundColor=#ffffff;imageAspect=0;aspect=fixed;image=https://cdn4.iconfinder.com/data/icons/REALVISTA/text/png/128/shapes.png;fontSize=35;" vertex="1" parent="1">
          <mxGeometry x="1586" y="2390" width="150" height="150" as="geometry" />
        </mxCell>
        <mxCell id="EeYLYLYff2lI2JlJs47j-220" value="" style="rounded=1;whiteSpace=wrap;html=1;shadow=0;strokeColor=none;fillColor=#BAC8D3;gradientColor=none;fontSize=18;fontColor=#F08705;opacity=40;fontStyle=0;strokeWidth=3;arcSize=20;" vertex="1" parent="1">
          <mxGeometry x="2078" y="1730" width="330" height="350" as="geometry" />
        </mxCell>
        <mxCell id="EeYLYLYff2lI2JlJs47j-221" value="计算引擎" style="text;html=1;strokeColor=none;fillColor=none;align=center;verticalAlign=middle;whiteSpace=wrap;rounded=0;fontSize=35;fontStyle=1" vertex="1" parent="1">
          <mxGeometry x="2088" y="1770" width="320" height="20" as="geometry" />
        </mxCell>
        <mxCell id="EeYLYLYff2lI2JlJs47j-222" value="" style="rounded=1;whiteSpace=wrap;html=1;shadow=0;strokeColor=none;fillColor=#BAC8D3;gradientColor=none;fontSize=18;fontColor=#F08705;opacity=40;fontStyle=0;strokeWidth=3;arcSize=20;" vertex="1" parent="1">
          <mxGeometry x="2549" y="1730" width="330" height="350" as="geometry" />
        </mxCell>
        <mxCell id="EeYLYLYff2lI2JlJs47j-223" value="模型训练" style="text;html=1;strokeColor=none;fillColor=none;align=center;verticalAlign=middle;whiteSpace=wrap;rounded=0;fontSize=35;fontStyle=1" vertex="1" parent="1">
          <mxGeometry x="2559" y="1770" width="320" height="20" as="geometry" />
        </mxCell>
        <mxCell id="EeYLYLYff2lI2JlJs47j-224" value="" style="rounded=1;whiteSpace=wrap;html=1;shadow=0;strokeColor=none;fillColor=#BAC8D3;gradientColor=none;fontSize=18;fontColor=#F08705;opacity=40;fontStyle=0;strokeWidth=3;arcSize=20;" vertex="1" parent="1">
          <mxGeometry x="2068" y="2268" width="330" height="350" as="geometry" />
        </mxCell>
        <mxCell id="EeYLYLYff2lI2JlJs47j-225" value="AI服务" style="text;html=1;strokeColor=none;fillColor=none;align=center;verticalAlign=middle;whiteSpace=wrap;rounded=0;fontSize=35;fontStyle=1" vertex="1" parent="1">
          <mxGeometry x="2078" y="2308" width="320" height="20" as="geometry" />
        </mxCell>
        <mxCell id="EeYLYLYff2lI2JlJs47j-226" value="" style="rounded=1;whiteSpace=wrap;html=1;shadow=0;strokeColor=none;fillColor=#BAC8D3;gradientColor=none;fontSize=18;fontColor=#F08705;opacity=40;fontStyle=0;strokeWidth=3;arcSize=20;" vertex="1" parent="1">
          <mxGeometry x="2539" y="2268" width="330" height="350" as="geometry" />
        </mxCell>
        <mxCell id="EeYLYLYff2lI2JlJs47j-227" value="场景构建" style="text;html=1;strokeColor=none;fillColor=none;align=center;verticalAlign=middle;whiteSpace=wrap;rounded=0;fontSize=35;fontStyle=1" vertex="1" parent="1">
          <mxGeometry x="2549" y="2308" width="320" height="20" as="geometry" />
        </mxCell>
        <mxCell id="EeYLYLYff2lI2JlJs47j-228" value="" style="shape=flexArrow;endArrow=classic;startArrow=classic;html=1;fontSize=35;fillColor=#FFFF33;startWidth=80;startSize=14.442857142857143;width=45.714285714285715;endWidth=80;endSize=14.442857142857143;strokeColor=none;" edge="1" parent="1">
          <mxGeometry width="100" height="100" relative="1" as="geometry">
            <mxPoint x="2030" y="2460" as="sourcePoint" />
            <mxPoint x="1880" y="2450" as="targetPoint" />
          </mxGeometry>
        </mxCell>
        <mxCell id="EeYLYLYff2lI2JlJs47j-229" value="" style="verticalLabelPosition=bottom;aspect=fixed;html=1;verticalAlign=top;strokeColor=none;align=center;outlineConnect=0;shape=mxgraph.citrix.process;fontSize=35;" vertex="1" parent="1">
          <mxGeometry x="2171.77" y="1854" width="122.45" height="146" as="geometry" />
        </mxCell>
        <mxCell id="EeYLYLYff2lI2JlJs47j-230" value="" style="verticalLabelPosition=bottom;aspect=fixed;html=1;verticalAlign=top;strokeColor=none;align=center;outlineConnect=0;shape=mxgraph.citrix.user_control;fontSize=35;" vertex="1" parent="1">
          <mxGeometry x="2625.6200000000003" y="1870" width="166.76" height="136" as="geometry" />
        </mxCell>
        <mxCell id="EeYLYLYff2lI2JlJs47j-231" value="" style="verticalLabelPosition=bottom;aspect=fixed;html=1;verticalAlign=top;strokeColor=none;align=center;outlineConnect=0;shape=mxgraph.citrix.access_card;fontSize=35;" vertex="1" parent="1">
          <mxGeometry x="2652.2" y="2410" width="103.6" height="140" as="geometry" />
        </mxCell>
        <mxCell id="EeYLYLYff2lI2JlJs47j-232" value="" style="verticalLabelPosition=bottom;aspect=fixed;html=1;verticalAlign=top;strokeColor=none;align=center;outlineConnect=0;shape=mxgraph.citrix.cloud;fontSize=35;" vertex="1" parent="1">
          <mxGeometry x="2141.06" y="2405" width="183.87" height="120" as="geometry" />
        </mxCell>
        <mxCell id="EeYLYLYff2lI2JlJs47j-233" value="" style="rounded=1;whiteSpace=wrap;html=1;shadow=0;strokeColor=none;fillColor=#BAC8D3;gradientColor=none;fontSize=18;fontColor=#F08705;opacity=40;fontStyle=0;strokeWidth=3;arcSize=20;" vertex="1" parent="1">
          <mxGeometry x="1025" y="2780" width="1857" height="340" as="geometry" />
        </mxCell>
        <mxCell id="EeYLYLYff2lI2JlJs47j-234" value="" style="shape=flexArrow;endArrow=classic;startArrow=classic;html=1;fontSize=35;fillColor=#FFFF33;startWidth=80;startSize=14.442857142857143;width=45.714285714285715;endWidth=80;endSize=14.442857142857143;strokeColor=none;" edge="1" parent="1">
          <mxGeometry width="100" height="100" relative="1" as="geometry">
            <mxPoint x="2220" y="2760" as="sourcePoint" />
            <mxPoint x="2220" y="2640" as="targetPoint" />
          </mxGeometry>
        </mxCell>
        <mxCell id="EeYLYLYff2lI2JlJs47j-235" value="" style="shape=flexArrow;endArrow=classic;startArrow=classic;html=1;fontSize=35;fillColor=#FFFF33;startWidth=80;startSize=14.442857142857143;width=45.714285714285715;endWidth=80;endSize=14.442857142857143;strokeColor=none;" edge="1" parent="1">
          <mxGeometry width="100" height="100" relative="1" as="geometry">
            <mxPoint x="1660" y="2760" as="sourcePoint" />
            <mxPoint x="1660" y="2640" as="targetPoint" />
          </mxGeometry>
        </mxCell>
        <mxCell id="EeYLYLYff2lI2JlJs47j-237" value="" style="outlineConnect=0;fontColor=#232F3E;gradientColor=none;fillColor=#116D5B;strokeColor=none;dashed=0;verticalLabelPosition=bottom;verticalAlign=top;align=center;html=1;fontSize=12;fontStyle=0;aspect=fixed;pointerEvents=1;shape=mxgraph.aws4.rekognition_image;" vertex="1" parent="1">
          <mxGeometry x="1547.31" y="2894" width="177.69" height="180" as="geometry" />
        </mxCell>
        <mxCell id="EeYLYLYff2lI2JlJs47j-238" value="" style="outlineConnect=0;fontColor=#232F3E;gradientColor=none;fillColor=#116D5B;strokeColor=none;dashed=0;verticalLabelPosition=bottom;verticalAlign=top;align=center;html=1;fontSize=12;fontStyle=0;aspect=fixed;pointerEvents=1;shape=mxgraph.aws4.rekognition_video;" vertex="1" parent="1">
          <mxGeometry x="2068" y="2890" width="177.7" height="180" as="geometry" />
        </mxCell>
        <mxCell id="EeYLYLYff2lI2JlJs47j-239" value="" style="points=[[0,0,0],[0.25,0,0],[0.5,0,0],[0.75,0,0],[1,0,0],[0,1,0],[0.25,1,0],[0.5,1,0],[0.75,1,0],[1,1,0],[0,0.25,0],[0,0.5,0],[0,0.75,0],[1,0.25,0],[1,0.5,0],[1,0.75,0]];outlineConnect=0;fontColor=#232F3E;gradientColor=#4AB29A;gradientDirection=north;fillColor=#116D5B;strokeColor=#ffffff;dashed=0;verticalLabelPosition=bottom;verticalAlign=top;align=center;html=1;fontSize=12;fontStyle=0;aspect=fixed;shape=mxgraph.aws4.resourceIcon;resIcon=mxgraph.aws4.textract;" vertex="1" parent="1">
          <mxGeometry x="2520" y="2894" width="180" height="180" as="geometry" />
        </mxCell>
        <mxCell id="EeYLYLYff2lI2JlJs47j-240" value="" style="points=[[0,0,0],[0.25,0,0],[0.5,0,0],[0.75,0,0],[1,0,0],[0,1,0],[0.25,1,0],[0.5,1,0],[0.75,1,0],[1,1,0],[0,0.25,0],[0,0.5,0],[0,0.75,0],[1,0.25,0],[1,0.5,0],[1,0.75,0]];outlineConnect=0;fontColor=#232F3E;gradientColor=#4AB29A;gradientDirection=north;fillColor=#116D5B;strokeColor=#ffffff;dashed=0;verticalLabelPosition=bottom;verticalAlign=top;align=center;html=1;fontSize=12;fontStyle=0;aspect=fixed;shape=mxgraph.aws4.resourceIcon;resIcon=mxgraph.aws4.fraud_detector;" vertex="1" parent="1">
          <mxGeometry x="1105" y="2894" width="176" height="176" as="geometry" />
        </mxCell>
        <mxCell id="EeYLYLYff2lI2JlJs47j-241" value="数据采集" style="text;html=1;strokeColor=none;fillColor=none;align=center;verticalAlign=middle;whiteSpace=wrap;rounded=0;fontSize=35;fontStyle=1" vertex="1" parent="1">
          <mxGeometry x="1780" y="2810" width="320" height="20" as="geometry" />
        </mxCell>
        <mxCell id="EeYLYLYff2lI2JlJs47j-242" value="" style="rounded=1;whiteSpace=wrap;html=1;shadow=0;strokeColor=none;fillColor=#BAC8D3;gradientColor=none;fontSize=18;fontColor=#F08705;opacity=40;fontStyle=0;strokeWidth=3;arcSize=20;" vertex="1" parent="1">
          <mxGeometry x="383.25" y="1750" width="373.5" height="1370" as="geometry" />
        </mxCell>
        <mxCell id="EeYLYLYff2lI2JlJs47j-243" value="&lt;p style=&quot;line-height: 500%&quot;&gt;&lt;font style=&quot;font-size: 85px&quot;&gt;开源开放SDK&lt;/font&gt;&lt;/p&gt;" style="text;html=1;strokeColor=none;fillColor=none;align=center;verticalAlign=middle;whiteSpace=wrap;rounded=0;fontSize=35;fontStyle=1" vertex="1" parent="1">
          <mxGeometry x="463" y="1860" width="210" height="1110" as="geometry" />
        </mxCell>
      </root>
    </mxGraphModel>
  </diagram>
  <diagram id="B-kWpOV9-iA1Cno7X-0G" name="第 2 页">
    <mxGraphModel dx="1743" dy="1053" grid="1" gridSize="10" guides="1" tooltips="1" connect="1" arrows="1" fold="1" page="1" pageScale="1" pageWidth="850" pageHeight="1100" math="0" shadow="0">
      <root>
        <mxCell id="hAuanQK6WDiUvRo2xRcy-0" />
        <mxCell id="hAuanQK6WDiUvRo2xRcy-1" parent="hAuanQK6WDiUvRo2xRcy-0" />
        <mxCell id="hAuanQK6WDiUvRo2xRcy-3" value="&lt;font style=&quot;font-size: 30px&quot;&gt;标签输出&lt;br&gt;&lt;/font&gt;" style="verticalLabelPosition=bottom;aspect=fixed;html=1;verticalAlign=top;strokeColor=none;align=center;outlineConnect=0;shape=mxgraph.citrix.reporting;fontSize=35;" vertex="1" parent="hAuanQK6WDiUvRo2xRcy-1">
          <mxGeometry x="1230" y="155.5" width="168.46" height="189" as="geometry" />
        </mxCell>
        <mxCell id="hAuanQK6WDiUvRo2xRcy-4" value="&lt;font style=&quot;font-size: 30px&quot;&gt;靶向核心库&lt;br&gt;&lt;/font&gt;" style="verticalLabelPosition=bottom;aspect=fixed;html=1;verticalAlign=top;strokeColor=none;align=center;outlineConnect=0;shape=mxgraph.citrix.datacenter;fontSize=35;" vertex="1" parent="hAuanQK6WDiUvRo2xRcy-1">
          <mxGeometry x="910" y="150" width="165.28" height="175" as="geometry" />
        </mxCell>
        <mxCell id="hAuanQK6WDiUvRo2xRcy-6" value="" style="shape=flexArrow;endArrow=classic;html=1;fontSize=35;fillColor=#FFFF33;" edge="1" parent="hAuanQK6WDiUvRo2xRcy-1">
          <mxGeometry width="50" height="50" relative="1" as="geometry">
            <mxPoint x="570" y="260" as="sourcePoint" />
            <mxPoint x="640" y="260" as="targetPoint" />
          </mxGeometry>
        </mxCell>
        <mxCell id="hAuanQK6WDiUvRo2xRcy-9" value="" style="edgeStyle=orthogonalEdgeStyle;rounded=0;orthogonalLoop=1;jettySize=auto;html=1;fontSize=35;fillColor=#FFFF33;" edge="1" parent="hAuanQK6WDiUvRo2xRcy-1" source="hAuanQK6WDiUvRo2xRcy-7" target="hAuanQK6WDiUvRo2xRcy-8">
          <mxGeometry relative="1" as="geometry" />
        </mxCell>
        <mxCell id="hAuanQK6WDiUvRo2xRcy-7" value="&lt;font style=&quot;font-size: 20px&quot;&gt;预处理&lt;/font&gt;" style="rounded=1;whiteSpace=wrap;html=1;fontSize=20;arcSize=28;" vertex="1" parent="hAuanQK6WDiUvRo2xRcy-1">
          <mxGeometry x="670" y="70" width="120" height="60" as="geometry" />
        </mxCell>
        <mxCell id="hAuanQK6WDiUvRo2xRcy-11" value="" style="edgeStyle=orthogonalEdgeStyle;rounded=0;orthogonalLoop=1;jettySize=auto;html=1;fontSize=20;fillColor=#FFFF33;" edge="1" parent="hAuanQK6WDiUvRo2xRcy-1" source="hAuanQK6WDiUvRo2xRcy-8" target="hAuanQK6WDiUvRo2xRcy-10">
          <mxGeometry relative="1" as="geometry" />
        </mxCell>
        <mxCell id="hAuanQK6WDiUvRo2xRcy-8" value="物体定位" style="whiteSpace=wrap;html=1;rounded=1;fontSize=20;arcSize=28;" vertex="1" parent="hAuanQK6WDiUvRo2xRcy-1">
          <mxGeometry x="670" y="150" width="120" height="60" as="geometry" />
        </mxCell>
        <mxCell id="hAuanQK6WDiUvRo2xRcy-13" value="" style="edgeStyle=orthogonalEdgeStyle;rounded=0;orthogonalLoop=1;jettySize=auto;html=1;fontSize=20;fillColor=#FFFF33;" edge="1" parent="hAuanQK6WDiUvRo2xRcy-1" source="hAuanQK6WDiUvRo2xRcy-10" target="hAuanQK6WDiUvRo2xRcy-12">
          <mxGeometry relative="1" as="geometry" />
        </mxCell>
        <mxCell id="hAuanQK6WDiUvRo2xRcy-10" value="物体识别" style="whiteSpace=wrap;html=1;rounded=1;fontSize=20;arcSize=28;" vertex="1" parent="hAuanQK6WDiUvRo2xRcy-1">
          <mxGeometry x="670" y="230" width="120" height="60" as="geometry" />
        </mxCell>
        <mxCell id="hAuanQK6WDiUvRo2xRcy-15" value="" style="edgeStyle=orthogonalEdgeStyle;rounded=0;orthogonalLoop=1;jettySize=auto;html=1;fontSize=20;fillColor=#FFFF33;" edge="1" parent="hAuanQK6WDiUvRo2xRcy-1" source="hAuanQK6WDiUvRo2xRcy-12" target="hAuanQK6WDiUvRo2xRcy-14">
          <mxGeometry relative="1" as="geometry" />
        </mxCell>
        <mxCell id="hAuanQK6WDiUvRo2xRcy-12" value="目标分割" style="whiteSpace=wrap;html=1;rounded=1;fontSize=20;arcSize=28;" vertex="1" parent="hAuanQK6WDiUvRo2xRcy-1">
          <mxGeometry x="670" y="310" width="120" height="60" as="geometry" />
        </mxCell>
        <mxCell id="hAuanQK6WDiUvRo2xRcy-14" value="关键点检测" style="whiteSpace=wrap;html=1;rounded=1;fontSize=20;arcSize=28;" vertex="1" parent="hAuanQK6WDiUvRo2xRcy-1">
          <mxGeometry x="670" y="390" width="120" height="60" as="geometry" />
        </mxCell>
        <mxCell id="hAuanQK6WDiUvRo2xRcy-18" value="" style="shape=flexArrow;endArrow=classic;html=1;fontSize=35;fillColor=#FFFF33;" edge="1" parent="hAuanQK6WDiUvRo2xRcy-1">
          <mxGeometry width="50" height="50" relative="1" as="geometry">
            <mxPoint x="830" y="260" as="sourcePoint" />
            <mxPoint x="890" y="260" as="targetPoint" />
          </mxGeometry>
        </mxCell>
        <mxCell id="hAuanQK6WDiUvRo2xRcy-19" value="" style="shape=flexArrow;endArrow=classic;html=1;fontSize=35;fillColor=#FFFF33;" edge="1" parent="hAuanQK6WDiUvRo2xRcy-1">
          <mxGeometry width="50" height="50" relative="1" as="geometry">
            <mxPoint x="1120" y="250" as="sourcePoint" />
            <mxPoint x="1200" y="250" as="targetPoint" />
          </mxGeometry>
        </mxCell>
      </root>
    </mxGraphModel>
  </diagram>
</mxfile>
